<svg xmlns="http://www.w3.org/2000/svg" xmlns:xlink="http://www.w3.org/1999/xlink" width="2048" height="2048" viewBox="0 0 541.867 541.867"><defs><linearGradient id="a"><stop offset="0" style="stop-color:#ff9800;stop-opacity:1"/><stop offset="1" style="stop-color:#ff7d91;stop-opacity:.99633199"/></linearGradient><linearGradient xlink:href="#a" id="b" x1="34.34" x2="234.724" y1="135.636" y2="135.636" gradientUnits="userSpaceOnUse"><stop offset="0" style="stop-color:#ff9800;stop-opacity:1"/><stop offset="1" style="stop-color:#ff7d91;stop-opacity:.99633199"/></linearGradient></defs><ellipse cx="190.507" cy="104.69" rx="2.462" ry="4.522" style="fill:none;stroke-width:.529166"/><ellipse cx="179.377" cy="109.272" rx="3.41" ry="7.83" style="fill:none;stroke-width:.529166"/><ellipse cx="411.515" cy="111.276" rx="4.049" ry="5.296" style="fill:none;stroke-width:.529166"/><g transform="matrix(2.28629 0 0 2.28629 -38.934 -20.049)"><circle cx="134.532" cy="135.636" r="100.192" style="fill:url(#b);fill-opacity:1;stroke:#ff9800;stroke-width:0;stroke-linecap:butt;stroke-linejoin:round;stroke-miterlimit:4;stroke-dasharray:none;stroke-opacity:1;paint-order:normal"/><rect width="106.03" height="25.245" x="81.193" y="142.084" ry="12.623" style="fill:#333;fill-opacity:1;stroke:#000;stroke-width:0;stroke-linecap:round;stroke-linejoin:round;stroke-miterlimit:4;stroke-dasharray:none;stroke-opacity:1;paint-order:normal"/><circle cx="134.237" cy="74.373" r="60.115" style="fill:#333;fill-opacity:1;fill-rule:evenodd;stroke:#000;stroke-width:0;stroke-miterlimit:4;stroke-dasharray:none;stroke-opacity:1"/><path d="M106.685 35.774a18.698 18.698 0 0 0 .04 37.396h11.687v38.094l7.012.155V73.17h16.802v38.245l7.011.054V73.17h11.687v.007a18.698 18.698 0 1 0-18.697-18.701h-.001v11.682h-16.802v-11.74a18.698 18.698 0 0 0-18.739-18.644zm.028 7.012h.012c6.454 0 11.686 5.232 11.686 11.686h.001v11.686h-11.687c-6.454 0-11.686-5.232-11.686-11.686 0-6.449 5.225-11.68 11.674-11.686zm54.211.007c6.455 0 11.687 5.232 11.687 11.686 0 6.438-5.208 11.664-11.646 11.686v-.007h-11.728V54.48h.001c0-6.454 5.232-11.686 11.686-11.686z" style="color:#000;font-style:normal;font-variant:normal;font-weight:400;font-stretch:normal;font-size:medium;line-height:normal;font-family:sans-serif;font-variant-ligatures:normal;font-variant-position:normal;font-variant-caps:normal;font-variant-numeric:normal;font-variant-alternates:normal;font-variant-east-asian:normal;font-feature-settings:normal;font-variation-settings:normal;text-indent:0;text-align:start;text-decoration:none;text-decoration-line:none;text-decoration-style:solid;text-decoration-color:#000;letter-spacing:normal;word-spacing:normal;text-transform:none;writing-mode:lr-tb;direction:ltr;text-orientation:mixed;dominant-baseline:auto;baseline-shift:baseline;text-anchor:start;white-space:normal;shape-padding:0;shape-margin:0;inline-size:0;clip-rule:nonzero;display:inline;overflow:visible;visibility:visible;opacity:1;isolation:auto;mix-blend-mode:normal;color-interpolation:sRGB;color-interpolation-filters:linearRGB;solid-color:#000;solid-opacity:1;vector-effect:none;fill:#1de9b6;fill-opacity:1;fill-rule:nonzero;stroke:none;stroke-width:7.0117;stroke-linecap:butt;stroke-linejoin:miter;stroke-miterlimit:4;stroke-dasharray:none;stroke-dashoffset:0;stroke-opacity:1;color-rendering:auto;image-rendering:auto;shape-rendering:auto;text-rendering:auto;enable-background:accumulate;stop-color:#000;stop-opacity:1"/><rect width="57.482" height="9.316" x="103.639" y="108.735" ry="4.658" style="fill:#4d4d4d;fill-opacity:1;stroke:#333;stroke-width:0;stroke-linecap:butt;stroke-linejoin:round;stroke-miterlimit:4;stroke-dasharray:none;stroke-opacity:1;paint-order:normal"/><rect width="80.785" height="25.245" x="91.291" y="179.952" ry="12.623" style="fill:#333;fill-opacity:1;stroke:#000;stroke-width:0;stroke-linecap:round;stroke-linejoin:round;stroke-miterlimit:4;stroke-dasharray:none;stroke-opacity:1;paint-order:normal"/><rect width="60.589" height="25.245" x="101.389" y="217.82" ry="12.623" style="fill:#333;fill-opacity:1;stroke:#000;stroke-width:0;stroke-linecap:round;stroke-linejoin:round;stroke-miterlimit:4;stroke-dasharray:none;stroke-opacity:1;paint-order:normal"/></g></svg>