<svg version="1.0" xmlns="http://www.w3.org/2000/svg" width="100" height="100" viewBox="0 0 611.000000 609.000000" preserveAspectRatio="xMidYMid meet">
    <g transform="translate(0.000000,609.000000) scale(0.100000,-0.100000)" fill="#fff" stroke="none">
        <path d="M80 3060 l0 -2970 270 0 270 0 0 2970 0 2970 -270 0 -270 0 0 -2970z"></path>
        <path d="M1160 3060 l0 -2970 270 0 270 0 0 2970 0 2970 -270 0 -270 0 0 -2970z"></path>
        <path d="M2240 5760 l0 -270 1620 0 1620 0 0 -810 0 -810 -1620 0 -1620 0 0 -270 0 -270 1890 0 1890 0 0 1350 0 1350 -1890 0 -1890 0 0 -270z"></path>
        <path d="M2240 4680 l0 -270 1350 0 1350 0 0 270 0 270 -1350 0 -1350 0 0 -270z"></path>
        <path d="M2240 2520 l0 -270 1620 0 1620 0 0 -810 0 -810 -1615 0 -1615 0 0 -270 0 -270 1885 0 1885 0 0 1350 0 1350 -1890 0 -1890 0 0 -270z"></path>
        <path d="M2240 1440 l0 -270 1350 0 1350 0 0 270 0 270 -1350 0 -1350 0 0 -270z"></path>
    </g>
</svg>