<svg xmlns="http://www.w3.org/2000/svg" viewBox="0 0 459 228.14"><defs><style>.cls-1,.cls-5,.cls-6{fill:none;}.cls-1,.cls-6{stroke:#fff;}.cls-1{stroke-miterlimit:10;stroke-width:2px;}.cls-2{font-size:147.17px;}.cls-2,.cls-3,.cls-4{fill:#fff;}.cls-2,.cls-4{font-family:ArialRoundedMTBold, Arial Rounded MT Bold;}.cls-4{font-size:56.12px;}.cls-6{stroke-width:5px;}</style></defs><title>LogoWhiteSVG</title><g id="Ebene_2" data-name="Ebene 2"><g id="Ebene_4" data-name="Ebene 4"><path class="cls-1" d="M253.25.61"/></g><g id="Ebene_5" data-name="Ebene 5"><text class="cls-2" transform="translate(240.18 145.07)">CK</text><polygon class="cls-3" points="459 23.82 438.18 23.82 436.9 23.82 436.9 22.38 436.9 2.88 418.83 2.88 418.83 23.82 395.13 23.82 395.13 2.88 377.06 2.88 377.06 23.82 353.36 23.82 353.36 2.88 335.3 2.88 335.3 23.82 311.6 23.82 311.6 2.88 293.53 2.88 293.53 23.82 269.83 23.82 269.83 2.88 251.76 2.88 251.76 23.82 229.5 23.82 229.5 20.94 248.88 20.94 248.88 0 272.71 0 272.71 20.94 290.65 20.94 290.65 0 314.47 0 314.47 20.94 332.42 20.94 332.42 0 356.24 0 356.24 20.94 374.19 20.94 374.19 0 398.01 0 398.01 20.94 415.95 20.94 415.95 0 439.77 0 439.77 20.94 459 20.94 459 23.82"/><path class="cls-3" d="M0,20.94v145H229.5v-145Zm107.78,34q-2.73,2.42-8.19,2.41H76.3v76.53q0,6.62-2.94,9.81a9.91,9.91,0,0,1-7.62,3.2A10,10,0,0,1,58,143.63q-3-3.24-3-9.78V57.32H31.75q-5.46,0-8.12-2.41A8.16,8.16,0,0,1,21,48.55a8,8,0,0,1,2.77-6.46q2.76-2.37,8-2.37H99.59q5.53,0,8.23,2.44a8.24,8.24,0,0,1,2.69,6.39A8.05,8.05,0,0,1,107.78,54.91Zm94,87.82q-2.55,2.32-7.58,2.33h-58q-7,0-10-3.09t-3.05-10V52.79a17.82,17.82,0,0,1,1.36-7.51A8.5,8.5,0,0,1,128.8,41a18.09,18.09,0,0,1,7.44-1.32h56.34c3.4,0,5.92.75,7.58,2.26a7.65,7.65,0,0,1,2.48,5.93,7.75,7.75,0,0,1-2.48,6c-1.66,1.51-4.18,2.26-7.58,2.26H144.5V82h44.27c3.25,0,5.69.73,7.29,2.19A7.44,7.44,0,0,1,198.47,90a7.72,7.72,0,0,1-2.37,5.85c-1.58,1.51-4,2.27-7.33,2.27H144.5v30h49.73q5,0,7.58,2.34a8,8,0,0,1,2.55,6.22A7.85,7.85,0,0,1,201.81,142.73Z"/><text class="cls-4" transform="translate(145.88 216.3)">digital</text><line class="cls-5" y1="193.44" x2="135.5" y2="193.44"/><line class="cls-6" x1="459" y1="201.79" x2="314.33" y2="201.79"/><line class="cls-6" x1="144.67" y1="201.79" y2="201.79"/></g></g></svg>