<?xml version="1.0" standalone="no"?>
<!DOCTYPE svg PUBLIC "-//W3C//DTD SVG 20010904//EN" "http://www.w3.org/TR/2001/REC-SVG-20010904/DTD/svg10.dtd">
<svg version="1.0" xmlns="http://www.w3.org/2000/svg" width="2048.000000pt" height="2048.000000pt" viewBox="0 0 2048.000000 2048.000000" preserveAspectRatio="xMidYMid meet">
    <metadata>
Created by potrace 1.16, written by Peter Selinger 2001-2019
</metadata>
    <g transform="translate(0.000000,2048.000000) scale(0.100000,-0.100000)" fill="#ffffff" stroke="none">
        <path d="M13040 20260 c-572 -38 -1163 -155 -1720 -340 -1164 -388 -2270
-1174 -3061 -2175 -811 -1027 -1341 -2324 -1488 -3644 -34 -298 -44 -483 -44
-806 0 -634 69 -1171 228 -1790 136 -528 305 -977 555 -1470 623 -1231 1546
-2202 2730 -2872 1223 -692 2681 -966 4080 -767 510 72 1047 215 1536 409 219
87 644 297 856 423 781 467 1445 1060 1975 1767 823 1098 1323 2469 1413 3870
13 206 13 676 0 880 -104 1605 -741 3141 -1791 4320 -158 178 -482 492 -664
644 -1079 902 -2277 1402 -3675 1536 -195 19 -735 27 -930 15z m905 -1025
c818 -84 1630 -378 2350 -849 313 -205 563 -413 875 -725 487 -488 842 -980
1139 -1581 335 -676 525 -1361 608 -2180 25 -251 25 -961 0 -1210 -105 -1037
-409 -1928 -939 -2755 -375 -584 -894 -1144 -1433 -1545 -742 -553 -1641 -915
-2515 -1014 -1146 -130 -2233 100 -3240 684 -993 576 -1866 1561 -2356 2655
-468 1046 -637 2248 -484 3445 147 1155 616 2228 1360 3115 433 515 890 909
1435 1238 164 98 536 285 720 361 513 211 1046 335 1605 376 184 13 687 4 875
-15z" />
        <path d="M14978 15895 c-2 -1 -381 -6 -843 -9 -462 -4 -930 -8 -1040 -11 -110
-3 -546 -7 -970 -10 -423 -3 -855 -7 -960 -10 -104 -3 -554 -7 -1000 -10 -445
-3 -832 -8 -860 -11 -173 -18 -337 -122 -405 -254 -55 -108 -63 -249 -20 -363
24 -63 112 -176 158 -201 72 -41 155 -77 199 -87 46 -11 781 -8 1853 6 201 3
598 8 883 11 l517 6 0 -1094 c0 -601 3 -1945 6 -2986 5 -1799 6 -1896 24
-1957 10 -35 35 -92 56 -125 34 -55 52 -74 140 -149 104 -88 360 -93 468 -9
111 86 172 167 208 277 l22 66 -3 1277 -2 1277 1393 4 c1378 3 1394 3 1506 24
525 101 992 408 1289 848 81 121 105 163 167 290 414 848 267 1887 -363 2577
-75 82 -231 215 -341 290 -179 123 -346 202 -555 262 -243 69 -337 76 -992 75
-292 -1 -533 -2 -535 -4z m1145 -926 c390 -58 715 -344 870 -764 181 -491 67
-1081 -278 -1430 -127 -129 -238 -204 -392 -263 -162 -63 -135 -61 -1488 -62
-676 -1 -1257 -1 -1290 -1 -33 -1 -77 -1 -97 0 l-38 1 0 1255 0 1254 233 3
c127 2 689 4 1247 6 558 2 1016 5 1019 7 8 9 142 5 214 -6z" />
        <path d="M7075 7659 c-759 -87 -1486 -463 -1927 -995 -266 -322 -465 -713
-568 -1119 -66 -258 -75 -336 -75 -635 0 -299 9 -377 75 -635 103 -406 302
-797 568 -1119 444 -536 1171 -910 1937 -996 116 -13 454 -13 570 0 580 65
1138 293 1580 646 479 383 832 977 960 1619 34 170 45 289 45 485 0 196 -11
315 -45 485 -128 642 -481 1236 -960 1619 -442 353 -1000 581 -1580 646 -104
11 -477 11 -580 -1z m555 -1009 c449 -55 812 -242 1145 -592 228 -239 361
-486 427 -794 21 -97 23 -135 23 -354 0 -219 -2 -257 -23 -354 -66 -308 -199
-555 -427 -794 -301 -317 -624 -498 -1022 -574 -104 -20 -149 -23 -383 -23
-234 0 -279 3 -383 23 -398 76 -721 257 -1022 574 -226 237 -360 486 -427 792
-20 90 -22 130 -22 356 0 226 2 266 22 356 67 306 201 555 427 792 323 340
678 528 1105 587 116 16 445 19 560 5z" />
        <path d="M2120 4343 c-368 -47 -778 -223 -1062 -454 -366 -299 -626 -763 -724
-1294 -27 -143 -27 -527 0 -670 71 -383 231 -744 457 -1025 271 -340 705 -596
1179 -698 114 -24 144 -26 355 -27 202 0 244 3 345 23 478 97 924 358 1199
702 226 281 386 642 457 1025 27 143 27 527 0 670 -71 383 -231 744 -457 1025
-270 338 -706 597 -1174 696 -103 22 -150 26 -330 29 -115 2 -226 1 -245 -2z
m490 -1032 c263 -78 557 -355 660 -623 58 -150 65 -193 65 -428 0 -235 -7
-278 -65 -428 -80 -207 -305 -455 -510 -561 -139 -72 -207 -86 -430 -86 -223
0 -291 14 -430 86 -205 106 -430 354 -510 561 -58 150 -65 193 -65 428 0 235
7 278 65 428 104 269 405 552 661 621 110 30 110 30 304 26 150 -2 192 -6 255
-24z" />
    </g>
</svg>