<svg xmlns="http://www.w3.org/2000/svg" xmlnsVectornator="http://vectornator.io" xmlSpace="preserve" stroke-miterlimit="10" style="fill-rule:nonzero;clip-rule:evenodd;stroke-linecap:round;stroke-linejoin:round" viewBox="0 0 1080 1080"><path vectornatorLayerName="Layer 1" fill="#fff" d="M174.281 73.844c-50.295 0-91.062 40.767-91.062 91.062 0 50.295 40.767 91.063 91.062 91.063H434c-.04 1.194-.187 2.359-.188 3.562V873.75c.001 58.939 47.78 106.719 106.719 106.719 58.939 0 106.719-47.78 106.719-106.719V546.438a241.449 241.449 0 0 0 69.688 10.25c133.338-.001 241.437-108.099 241.437-241.438 0-127.772-99.293-232.271-224.906-240.781-3.379-.38-6.802-.625-10.281-.625H174.281ZM719.938 191c68.759 0 124.499 55.741 124.5 124.5 0 68.759-55.741 124.5-124.5 124.5-68.76 0-124.5-55.741-124.5-124.5s55.74-124.5 124.5-124.5Z"/></svg>